<?xml version="1.0" encoding="utf-8" standalone="no"?>
<!DOCTYPE svg PUBLIC "-//W3C//DTD SVG 1.1//EN"
  "http://www.w3.org/Graphics/SVG/1.1/DTD/svg11.dtd">
<svg xmlns:xlink="http://www.w3.org/1999/xlink" width="164.79pt" height="59.64pt" viewBox="0 0 164.79 59.64" xmlns="http://www.w3.org/2000/svg" version="1.1">
 <metadata>
  <rdf:RDF xmlns:dc="http://purl.org/dc/elements/1.1/" xmlns:cc="http://creativecommons.org/ns#" xmlns:rdf="http://www.w3.org/1999/02/22-rdf-syntax-ns#">
   <cc:Work>
    <dc:type rdf:resource="http://purl.org/dc/dcmitype/StillImage"/>
    <dc:date>2026-07-29T14:06:28.675391</dc:date>
    <dc:format>image/svg+xml</dc:format>
    <dc:creator>
     <cc:Agent>
      <dc:title>Matplotlib v3.11.1, https://matplotlib.org/</dc:title>
     </cc:Agent>
    </dc:creator>
   </cc:Work>
  </rdf:RDF>
 </metadata>
 <defs>
  <style type="text/css">*{stroke-linejoin: round; stroke-linecap: butt}</style>
 </defs>
 <g id="figure_1">
  <g id="patch_1">
   <path d="M 0 59.64 
L 164.79 59.64 
L 164.79 0 
L 0 0 
L 0 59.64 
z
" style="fill: none"/>
  </g>
  <g id="text_1">
   <!-- $L_{\rm cool} \; = \; L_1 \; + \; L_2 \; + \; L_3$ -->
   <g style="fill: #1a1a1a" transform="translate(4.32 33.72) scale(0.15 -0.15)">
    <defs>
     <path id="Cmmi10-55" d="M 300 0 
Q 238 0 238 84 
Q 241 100 250 139 
Q 259 178 276 201 
Q 294 225 319 225 
Q 709 225 863 269 
Q 947 297 984 441 
L 1863 3956 
Q 1875 4019 1875 4044 
Q 1875 4113 1797 4122 
Q 1678 4147 1338 4147 
Q 1275 4147 1275 4231 
Q 1297 4313 1309 4342 
Q 1322 4372 1381 4372 
L 3272 4372 
Q 3328 4372 3328 4288 
Q 3319 4222 3306 4184 
Q 3294 4147 3244 4147 
Q 2772 4147 2613 4116 
Q 2456 4088 2419 3928 
L 1544 416 
Q 1516 338 1516 275 
Q 1516 225 1734 225 
L 2328 225 
Q 2831 225 3143 425 
Q 3456 625 3606 876 
Q 3756 1128 3857 1398 
Q 3959 1669 4006 1678 
L 4063 1678 
Q 4128 1678 4128 1594 
L 3559 44 
Q 3550 0 3500 0 
L 300 0 
z
" transform="scale(0.015625)"/>
     <path id="Cmr10-7b" d="M 1594 -72 
Q 1206 -72 890 129 
Q 575 331 394 667 
Q 213 1003 213 1381 
Q 213 1759 392 2106 
Q 572 2453 889 2661 
Q 1206 2869 1594 2869 
Q 1969 2869 2276 2722 
Q 2584 2575 2584 2241 
Q 2584 2116 2495 2023 
Q 2406 1931 2278 1931 
Q 2150 1931 2061 2023 
Q 1972 2116 1972 2241 
Q 1972 2353 2044 2436 
Q 2116 2519 2222 2541 
Q 2000 2681 1600 2681 
Q 1294 2681 1106 2478 
Q 919 2275 844 1975 
Q 769 1675 769 1381 
Q 769 1072 861 783 
Q 953 494 1158 305 
Q 1363 116 1672 116 
Q 1975 116 2187 302 
Q 2400 488 2478 788 
Q 2478 825 2528 825 
L 2606 825 
Q 2625 825 2640 808 
Q 2656 791 2656 769 
L 2656 750 
Q 2559 372 2271 150 
Q 1984 -72 1594 -72 
z
" transform="scale(0.015625)"/>
     <path id="Cmr10-42" d="M 1600 -72 
Q 1216 -72 887 123 
Q 559 319 368 647 
Q 178 975 178 1363 
Q 178 1656 283 1928 
Q 388 2200 583 2414 
Q 778 2628 1037 2748 
Q 1297 2869 1600 2869 
Q 1994 2869 2317 2661 
Q 2641 2453 2828 2104 
Q 3016 1756 3016 1363 
Q 3016 978 2825 648 
Q 2634 319 2307 123 
Q 1981 -72 1600 -72 
z
M 1600 116 
Q 2113 116 2284 487 
Q 2456 859 2456 1434 
Q 2456 1756 2422 1967 
Q 2388 2178 2272 2350 
Q 2200 2456 2089 2536 
Q 1978 2616 1854 2658 
Q 1731 2700 1600 2700 
Q 1400 2700 1220 2609 
Q 1041 2519 922 2350 
Q 803 2169 770 1951 
Q 738 1734 738 1434 
Q 738 1075 800 789 
Q 863 503 1052 309 
Q 1241 116 1600 116 
z
" transform="scale(0.015625)"/>
     <path id="Cmr10-6a" d="M 197 0 
L 197 225 
Q 416 225 556 259 
Q 697 294 697 428 
L 697 3788 
Q 697 3959 645 4036 
Q 594 4113 497 4130 
Q 400 4147 197 4147 
L 197 4372 
L 1147 4441 
L 1147 428 
Q 1147 294 1287 259 
Q 1428 225 1644 225 
L 1644 0 
L 197 0 
z
" transform="scale(0.015625)"/>
     <path id="Cmr10-29" d="M 481 850 
Q 428 850 393 890 
Q 359 931 359 978 
Q 359 1031 393 1068 
Q 428 1106 481 1106 
L 4500 1106 
Q 4547 1106 4581 1068 
Q 4616 1031 4616 978 
Q 4616 931 4581 890 
Q 4547 850 4500 850 
L 481 850 
z
M 481 2094 
Q 428 2094 393 2131 
Q 359 2169 359 2222 
Q 359 2269 393 2309 
Q 428 2350 481 2350 
L 4500 2350 
Q 4547 2350 4581 2309 
Q 4616 2269 4616 2222 
Q 4616 2169 4581 2131 
Q 4547 2094 4500 2094 
L 481 2094 
z
" transform="scale(0.015625)"/>
     <path id="Cmr10-64" d="M 594 0 
L 594 225 
Q 1394 225 1394 428 
L 1394 3788 
Q 1063 3628 556 3628 
L 556 3853 
Q 1341 3853 1741 4263 
L 1831 4263 
Q 1853 4263 1873 4245 
Q 1894 4228 1894 4206 
L 1894 428 
Q 1894 225 2694 225 
L 2694 0 
L 594 0 
z
" transform="scale(0.015625)"/>
     <path id="Cmr10-4c" d="M 481 1472 
Q 428 1472 393 1512 
Q 359 1553 359 1600 
Q 359 1647 393 1687 
Q 428 1728 481 1728 
L 2363 1728 
L 2363 3616 
Q 2363 3666 2400 3698 
Q 2438 3731 2491 3731 
Q 2538 3731 2578 3698 
Q 2619 3666 2619 3616 
L 2619 1728 
L 4500 1728 
Q 4547 1728 4581 1687 
Q 4616 1647 4616 1600 
Q 4616 1553 4581 1512 
Q 4547 1472 4500 1472 
L 2619 1472 
L 2619 -416 
Q 2619 -466 2578 -498 
Q 2538 -531 2491 -531 
Q 2438 -531 2400 -498 
Q 2363 -466 2363 -416 
L 2363 1472 
L 481 1472 
z
" transform="scale(0.015625)"/>
     <path id="Cmr10-31" d="M 319 0 
L 319 172 
Q 319 188 331 206 
L 1325 1306 
Q 1550 1550 1690 1715 
Q 1831 1881 1968 2097 
Q 2106 2313 2186 2536 
Q 2266 2759 2266 3009 
Q 2266 3272 2169 3511 
Q 2072 3750 1880 3894 
Q 1688 4038 1416 4038 
Q 1138 4038 916 3870 
Q 694 3703 603 3438 
Q 628 3444 672 3444 
Q 816 3444 917 3347 
Q 1019 3250 1019 3097 
Q 1019 2950 917 2848 
Q 816 2747 672 2747 
Q 522 2747 420 2851 
Q 319 2956 319 3097 
Q 319 3338 409 3548 
Q 500 3759 670 3923 
Q 841 4088 1055 4175 
Q 1269 4263 1509 4263 
Q 1875 4263 2190 4108 
Q 2506 3953 2690 3670 
Q 2875 3388 2875 3009 
Q 2875 2731 2753 2481 
Q 2631 2231 2440 2026 
Q 2250 1822 1953 1562 
Q 1656 1303 1563 1216 
L 838 519 
L 1453 519 
Q 1906 519 2211 526 
Q 2516 534 2534 550 
Q 2609 631 2688 1141 
L 2875 1141 
L 2694 0 
L 319 0 
z
" transform="scale(0.015625)"/>
     <path id="Cmr10-6e" d="M 609 494 
Q 759 275 1012 169 
Q 1266 63 1556 63 
Q 1928 63 2084 380 
Q 2241 697 2241 1100 
Q 2241 1281 2208 1462 
Q 2175 1644 2097 1800 
Q 2019 1956 1883 2050 
Q 1747 2144 1550 2144 
L 1125 2144 
Q 1069 2144 1069 2203 
L 1069 2259 
Q 1069 2309 1125 2309 
L 1478 2338 
Q 1703 2338 1851 2506 
Q 2000 2675 2069 2917 
Q 2138 3159 2138 3378 
Q 2138 3684 1994 3881 
Q 1850 4078 1556 4078 
Q 1313 4078 1091 3986 
Q 869 3894 738 3706 
Q 750 3709 759 3711 
Q 769 3713 781 3713 
Q 925 3713 1022 3613 
Q 1119 3513 1119 3372 
Q 1119 3234 1022 3134 
Q 925 3034 781 3034 
Q 641 3034 541 3134 
Q 441 3234 441 3372 
Q 441 3647 606 3850 
Q 772 4053 1033 4158 
Q 1294 4263 1556 4263 
Q 1750 4263 1965 4205 
Q 2181 4147 2356 4039 
Q 2531 3931 2642 3762 
Q 2753 3594 2753 3378 
Q 2753 3109 2633 2881 
Q 2513 2653 2303 2487 
Q 2094 2322 1844 2241 
Q 2122 2188 2372 2031 
Q 2622 1875 2773 1631 
Q 2925 1388 2925 1106 
Q 2925 753 2731 467 
Q 2538 181 2222 20 
Q 1906 -141 1556 -141 
Q 1256 -141 954 -26 
Q 653 88 461 316 
Q 269 544 269 863 
Q 269 1022 375 1128 
Q 481 1234 641 1234 
Q 744 1234 830 1186 
Q 916 1138 964 1050 
Q 1013 963 1013 863 
Q 1013 706 903 600 
Q 794 494 641 494 
L 609 494 
z
" transform="scale(0.015625)"/>
    </defs>
    <use xlink:href="#Cmmi10-55" transform="translate(0 0.6875)"/>
    <use xlink:href="#Cmr10-7b" transform="translate(68.017578 -14.312462) scale(0.7)"/>
    <use xlink:href="#Cmr10-42" transform="translate(99.086914 -14.312462) scale(0.7)"/>
    <use xlink:href="#Cmr10-42" transform="translate(134.086914 -14.312462) scale(0.7)"/>
    <use xlink:href="#Cmr10-6a" transform="translate(169.086914 -14.312462) scale(0.7)"/>
    <use xlink:href="#Cmr10-29" transform="translate(241.965349 0.6875)"/>
    <use xlink:href="#Cmmi10-55" transform="translate(367.429033 0.6875)"/>
    <use xlink:href="#Cmr10-64" transform="translate(435.446611 -14.312462) scale(0.7)"/>
    <use xlink:href="#Cmr10-4c" transform="translate(523.945163 0.6875)"/>
    <use xlink:href="#Cmmi10-55" transform="translate(649.408846 0.6875)"/>
    <use xlink:href="#Cmr10-31" transform="translate(717.426425 -14.312462) scale(0.7)"/>
    <use xlink:href="#Cmr10-4c" transform="translate(805.924977 0.6875)"/>
    <use xlink:href="#Cmmi10-55" transform="translate(931.38866 0.6875)"/>
    <use xlink:href="#Cmr10-6e" transform="translate(999.406238 -14.312462) scale(0.7)"/>
   </g>
  </g>
 </g>
</svg>
